<?xml version="1.0" standalone="no"?>
<!DOCTYPE svg PUBLIC "-//W3C//DTD SVG 20010904//EN"
 "http://www.w3.org/TR/2001/REC-SVG-20010904/DTD/svg10.dtd">
<svg version="1.0" xmlns="http://www.w3.org/2000/svg"
 width="191.000000pt" height="207.000000pt" viewBox="0 0 191.000000 207.000000"
 preserveAspectRatio="xMidYMid meet">

<g transform="translate(0.000000,207.000000) scale(0.100000,-0.100000)"
fill="#000000" stroke="none">
<path d="M795 2056 c-38 -8 -89 -21 -113 -30 -212 -77 -391 -273 -470 -516
-34 -101 -42 -161 -52 -355 -10 -214 -34 -340 -95 -509 -74 -206 -78 -238 -29
-256 27 -11 63 -5 212 34 147 39 185 27 247 -75 77 -125 115 -133 293 -62 169
67 195 66 337 -15 97 -56 115 -63 152 -59 54 6 96 36 138 102 52 82 68 89 216
95 161 8 179 17 179 93 -1 35 -12 81 -36 142 -110 282 -120 322 -133 562 -11
198 -32 288 -96 419 -151 310 -459 487 -750 430z m303 -41 c175 -55 333 -199
431 -392 54 -107 81 -222 91 -383 18 -273 31 -337 109 -526 47 -113 71 -207
63 -246 -5 -26 -50 -37 -172 -40 -140 -5 -166 -16 -216 -96 -44 -70 -74 -94
-128 -99 -33 -3 -52 3 -101 32 -178 105 -205 108 -382 41 -122 -46 -177 -55
-214 -35 -11 5 -40 41 -64 80 -77 119 -124 131 -321 78 -123 -32 -151 -34
-168 -7 -11 19 2 66 69 255 51 145 74 279 85 493 11 218 31 312 94 445 80 168
205 297 362 372 142 68 305 78 462 28z"/>
<path d="M607 1636 c-81 -30 -129 -106 -129 -206 0 -115 84 -210 184 -210 46
0 115 37 141 75 l23 33 33 -40 c57 -68 136 -86 209 -49 48 24 66 45 93 106 51
116 -11 263 -125 295 -62 17 -117 0 -170 -54 l-41 -42 -29 33 c-52 61 -124 83
-189 59z m120 -27 c29 -14 52 -35 69 -65 14 -24 29 -44 33 -44 4 0 15 15 24
34 8 19 31 45 49 59 105 80 244 5 256 -137 17 -203 -199 -295 -303 -130 l-28
44 -28 -45 c-34 -54 -67 -76 -123 -82 -120 -14 -211 119 -171 252 22 75 88
133 154 134 14 1 44 -8 68 -20z"/>
<path d="M651 1444 c-28 -35 -26 -69 4 -99 30 -30 64 -32 99 -4 30 24 35 72
10 107 -23 33 -86 31 -113 -4z"/>
<path d="M895 1450 c-28 -31 -24 -79 9 -107 32 -27 66 -30 95 -5 55 46 24 132
-48 132 -25 0 -44 -7 -56 -20z"/>
</g>
</svg>
